<svg id="visual" viewBox="0 0 960 540" width="960" height="540" xmlns="http://www.w3.org/2000/svg" xmlns:xlink="http://www.w3.org/1999/xlink" version="1.1"><rect x="0" y="0" width="960" height="540" fill="#001220"></rect><path d="M0 392L22.8 393C45.7 394 91.3 396 137 391.8C182.7 387.7 228.3 377.3 274 373.2C319.7 369 365.3 371 411.2 377.7C457 384.3 503 395.7 548.8 396.3C594.7 397 640.3 387 686 383.8C731.7 380.7 777.3 384.3 823 381.8C868.7 379.3 914.3 370.7 937.2 366.3L960 362L960 541L937.2 541C914.3 541 868.7 541 823 541C777.3 541 731.7 541 686 541C640.3 541 594.7 541 548.8 541C503 541 457 541 411.2 541C365.3 541 319.7 541 274 541C228.3 541 182.7 541 137 541C91.3 541 45.7 541 22.8 541L0 541Z" fill="#fa7268"></path><path d="M0 418L22.8 419.3C45.7 420.7 91.3 423.3 137 422.7C182.7 422 228.3 418 274 419C319.7 420 365.3 426 411.2 425.3C457 424.7 503 417.3 548.8 413.2C594.7 409 640.3 408 686 411.2C731.7 414.3 777.3 421.7 823 424.3C868.7 427 914.3 425 937.2 424L960 423L960 541L937.2 541C914.3 541 868.7 541 823 541C777.3 541 731.7 541 686 541C640.3 541 594.7 541 548.8 541C503 541 457 541 411.2 541C365.3 541 319.7 541 274 541C228.3 541 182.7 541 137 541C91.3 541 45.7 541 22.8 541L0 541Z" fill="#ef5f67"></path><path d="M0 460L22.8 461.5C45.7 463 91.3 466 137 461.8C182.7 457.7 228.3 446.3 274 440.5C319.7 434.7 365.3 434.3 411.2 436.2C457 438 503 442 548.8 445.3C594.7 448.7 640.3 451.3 686 447.3C731.7 443.3 777.3 432.7 823 430C868.7 427.3 914.3 432.7 937.2 435.3L960 438L960 541L937.2 541C914.3 541 868.7 541 823 541C777.3 541 731.7 541 686 541C640.3 541 594.7 541 548.8 541C503 541 457 541 411.2 541C365.3 541 319.7 541 274 541C228.3 541 182.7 541 137 541C91.3 541 45.7 541 22.8 541L0 541Z" fill="#e34c67"></path><path d="M0 475L22.8 478.2C45.7 481.3 91.3 487.7 137 486.3C182.7 485 228.3 476 274 470.3C319.7 464.7 365.3 462.3 411.2 462.8C457 463.3 503 466.7 548.8 469.2C594.7 471.7 640.3 473.3 686 472.7C731.7 472 777.3 469 823 468.8C868.7 468.7 914.3 471.3 937.2 472.7L960 474L960 541L937.2 541C914.3 541 868.7 541 823 541C777.3 541 731.7 541 686 541C640.3 541 594.7 541 548.8 541C503 541 457 541 411.2 541C365.3 541 319.7 541 274 541C228.3 541 182.7 541 137 541C91.3 541 45.7 541 22.8 541L0 541Z" fill="#d53867"></path><path d="M0 518L22.8 512.8C45.7 507.7 91.3 497.3 137 493.8C182.7 490.3 228.3 493.7 274 498.5C319.7 503.3 365.3 509.7 411.2 510C457 510.3 503 504.7 548.8 505.5C594.7 506.3 640.3 513.7 686 511.7C731.7 509.7 777.3 498.3 823 495.2C868.7 492 914.3 497 937.2 499.5L960 502L960 541L937.2 541C914.3 541 868.7 541 823 541C777.3 541 731.7 541 686 541C640.3 541 594.7 541 548.8 541C503 541 457 541 411.2 541C365.3 541 319.7 541 274 541C228.3 541 182.7 541 137 541C91.3 541 45.7 541 22.8 541L0 541Z" fill="#c62368"></path></svg>