<?xml version="1.0" encoding="utf-8"?>
<!-- Generator: Adobe Illustrator 23.0.5, SVG Export Plug-In . SVG Version: 6.00 Build 0)  -->
<svg version="1.1" id="Capa_1" xmlns="http://www.w3.org/2000/svg" xmlns:xlink="http://www.w3.org/1999/xlink" x="0px" y="0px"
	 viewBox="0 0 96 96" style="enable-background:new 0 0 96 96;" xml:space="preserve">
<style type="text/css">
	.st0{fill:url(#SVGID_1_);}
	.st1{fill:url(#SVGID_2_);}
</style>
<g>
	<g>
		<g>
			<g>
				<linearGradient id="SVGID_1_" gradientUnits="userSpaceOnUse" x1="47.2549" y1="102.5615" x2="47.2549" y2="11.5427">
					<stop  offset="0" style="stop-color:#BBD532"/>
					<stop  offset="0.1033" style="stop-color:#C6C92E"/>
					<stop  offset="0.3192" style="stop-color:#DFAB26"/>
					<stop  offset="0.5228" style="stop-color:#F6871F"/>
					<stop  offset="0.7089" style="stop-color:#E77360"/>
					<stop  offset="1" style="stop-color:#D14B9B"/>
				</linearGradient>
				<path class="st0" d="M47.25,89.06c-22.04,0-39.97-17.93-39.97-39.97c0-22.04,17.93-39.97,39.97-39.97
					c22.04,0,39.97,17.93,39.97,39.97C87.22,71.13,69.29,89.06,47.25,89.06z M47.25,16.12c-18.18,0-32.97,14.79-32.97,32.97
					s14.79,32.97,32.97,32.97s32.97-14.79,32.97-32.97S65.43,16.12,47.25,16.12z"/>
			</g>
		</g>
		<g>
			<linearGradient id="SVGID_2_" gradientUnits="userSpaceOnUse" x1="47.9218" y1="102.5615" x2="47.9218" y2="11.5427">
				<stop  offset="0" style="stop-color:#BBD532"/>
				<stop  offset="0.1033" style="stop-color:#C6C92E"/>
				<stop  offset="0.3192" style="stop-color:#DFAB26"/>
				<stop  offset="0.5228" style="stop-color:#F6871F"/>
				<stop  offset="0.7089" style="stop-color:#E77360"/>
				<stop  offset="1" style="stop-color:#D14B9B"/>
			</linearGradient>
			<path class="st1" d="M47.92,28.99c-11.06,0-20.03,8.36-20.03,18.68c0,5.91,2.95,11.18,7.54,14.61l0.02,6.95l6.71-3.66
				c1.82,0.51,3.76,0.78,5.76,0.78c11.06,0,20.03-8.36,20.03-18.68S58.98,28.99,47.92,28.99z M60.8,42.58
				c-3.61,3.86-7.22,7.71-10.84,11.59c-1.71-1.83-3.4-3.65-5.1-5.47c-1.67,0.92-8.24,4.53-9.88,5.43c-0.01-0.01-0.01-0.02-0.02-0.03
				c0.01-0.02,0.01-0.04,0.02-0.05c3.62-3.87,7.24-7.74,10.88-11.62c0.27,0.26,4.96,5.19,5.22,5.46c3.26-1.81,6.5-3.62,9.76-5.43
				c0.01,0.01,0.02,0.02,0.02,0.03C60.84,42.53,60.82,42.56,60.8,42.58z"/>
		</g>
	</g>
</g>
</svg>
